<?xml version="1.0" encoding="UTF-8" standalone="no"?>
<!-- Generator: Adobe Illustrator 18.0.0, SVG Export Plug-In . SVG Version: 6.00 Build 0)  -->

<svg
 xmlns:dc="http://purl.org/dc/elements/1.1/"
 xmlns:cc="http://creativecommons.org/ns#"
 xmlns:rdf="http://www.w3.org/1999/02/22-rdf-syntax-ns#"
 xmlns:svg="http://www.w3.org/2000/svg"
 xmlns="http://www.w3.org/2000/svg"
 xmlns:sodipodi="http://sodipodi.sourceforge.net/DTD/sodipodi-0.dtd"
 xmlns:inkscape="http://www.inkscape.org/namespaces/inkscape"
 version="1.1"
 x="0px"
 y="0px"
 viewBox="0 0 1248.4 67.2"
 enable-background="new 0 0 1248.4 67.2"
 xml:space="preserve"
 id="svg3085"
 inkscape:version="0.48.3.1 r9886"
 width="100%"
 height="100%"
 sodipodi:docname="logo-simons.svg"><metadata
 id="metadata3129"><rdf:RDF><cc:Work
 rdf:about=""><dc:format>image/svg+xml</dc:format><dc:type
 rdf:resource="http://purl.org/dc/dcmitype/StillImage" /><dc:title></dc:title></cc:Work></rdf:RDF></metadata><defs
 id="defs3127" /><sodipodi:namedview
 pagecolor="#ffffff"
 bordercolor="#666666"
 borderopacity="1"
 objecttolerance="10"
 gridtolerance="10"
 guidetolerance="10"
 inkscape:pageopacity="0"
 inkscape:pageshadow="2"
 inkscape:window-width="1535"
 inkscape:window-height="876"
 id="namedview3125"
 showgrid="false"
 inkscape:showpageshadow="false"
 showborder="true"
 inkscape:zoom="2.782208"
 inkscape:cx="-7.9215998"
 inkscape:cy="59.033161"
 inkscape:window-x="65"
 inkscape:window-y="24"
 inkscape:window-maximized="1"
 inkscape:current-layer="svg3085" />
<g
 id="text__x28_editable_x29_"
 display="none">
	<text
 transform="matrix(1 0 0 1 -2.5161 118.2397)"
 display="inline"
 fill="#686869"
 font-family="'Univers'"
 font-size="48.3749"
 id="text3088">Advancing Research in Basic Science and Mathematics</text>

</g>
<g
 id="Text__x28_outlines_x29_">
</g>
<g
 id="artwork_1_">
	<g
 id="logo_large_1_1_">
		<path
 fill="#3A509F"
 d="M0,57.7c0-1.8,1.5-3.2,3.2-3.2c0.6,0,1.4,0.1,2.5,0.9c2.5,1.9,6.8,5.1,12.8,5.1c8.4,0,13.6-4.8,13.6-12    c0-14.7-30.4-12.2-30.4-32C1.7,6.3,11,0,20.5,0C27.6,0,32.8,3.3,36,5.5c1,0.7,1.4,1.6,1.4,2.9c0,1.8-1.4,3.3-3.2,3.3    c-0.6,0-1.5-0.2-2.1-0.7c-2.4-1.8-6.5-4.4-11.7-4.4c-6.2,0-11.8,4.1-11.8,10.1c0,14.5,30.4,11.6,30.4,32    c0,11.2-8.3,18.6-20.6,18.6c-7.9,0-12.7-3.3-17-6.6C0.5,59.9,0,58.9,0,57.7z"
 id="path3093" />
		<path
 fill="#3A509F"
 d="M74.9,4c0-1.9,1.4-3.4,3.4-3.4c2,0,3.4,1.4,3.4,3.4v59.2c0,1.9-1.4,3.4-3.4,3.4c-2,0-3.4-1.4-3.4-3.4V4z"
 id="path3095" />
		<path
 fill="#3A509F"
 d="M176.6,0.6c1.8,0,3.2,1.1,3.4,2.9l6.6,59.4c0,1.8-0.9,3.7-3.2,3.7c-2.1,0-3.3-0.8-3.5-3l-5.5-53.4    c-5.1,11.5-15.9,46.9-17,51.5c-0.5,2-2.6,3.2-4.1,3.2h-0.6c-1.5,0-3.5-1.3-3.9-3.1c-1.7-6.3-12.3-41.2-17-51.6L126,63.6    c-0.2,1.7-1.4,3-3.5,3c-2,0-3.1-1.3-3.1-3.4L126,3.5c0.2-1.5,1.4-2.9,3.4-2.9h1.1c1.9,0,3.3,0.7,4.5,2.4    c4.1,5.8,13.4,35.6,17.9,50.3c4.3-14.2,13-42.6,17.6-49.8c1.2-1.9,2.9-2.8,4.7-2.8H176.6z"
 id="path3097" />
		<path
 fill="#3A509F"
 d="M220.4,33.7c0-19.2,12.1-33.7,28-33.7c16.2,0,27.9,14.3,27.9,33.7c0,19.3-11.7,33.4-27.9,33.4    C232.5,67.2,220.4,52.7,220.4,33.7z M269.3,33.7c0-15.6-8.6-27.2-20.9-27.2c-12.1,0-21,11.9-21,27.2c0,15.2,8.9,26.9,21,26.9    C260.7,60.6,269.3,49.2,269.3,33.7z"
 id="path3099" />
		<path
 fill="#3A509F"
 d="M349.1,4c0-1.9,1.4-3.4,3.5-3.4c1.8,0,3.3,1.4,3.3,3.4v59.2c0,2-1.4,3.4-3.3,3.4h-1.2    c-1.3,0-3.1-0.4-4.2-1.5c-4.1-3.9-10.8-17.9-17.1-31.6c-5.2-11.3-7.9-18.3-11.1-22.9v52.6c0,2-1.4,3.4-3.4,3.4    c-1.8,0-3.4-1.3-3.4-3.4V4c0-1.9,1.5-3.4,3.4-3.4h1.2c1.1,0,2.9,0.2,4.2,1.4c4.4,4.3,10.8,18,16.6,31.1    c4.4,9.9,8.3,18.6,11.5,23.5V4z"
 id="path3101" />
		<path
 fill="#3A509F"
 d="M391.6,57.7c0-1.8,1.5-3.2,3.2-3.2c0.6,0,1.4,0.1,2.5,0.9c2.5,1.9,6.8,5.1,12.8,5.1    c8.4,0,13.6-4.8,13.6-12c0-14.7-30.4-12.2-30.4-32c0-10.4,9.2-16.6,18.8-16.6c7.1,0,12.3,3.3,15.5,5.5c1,0.7,1.4,1.6,1.4,2.9    c0,1.8-1.4,3.3-3.2,3.3c-0.6,0-1.5-0.2-2.1-0.7c-2.4-1.8-6.5-4.4-11.7-4.4c-6.2,0-11.8,4.1-11.8,10.1c0,14.5,30.4,11.6,30.4,32    c0,11.2-8.3,18.6-20.6,18.6c-7.9,0-12.7-3.3-17-6.6C392.1,59.9,391.6,58.9,391.6,57.7z"
 id="path3103" />
		<path
 fill="#3A509F"
 d="M519.4,3.8c0-1.9,1.4-3.2,3.4-3.2h26.8c2,0,3.4,1.2,3.4,3.2c0,1.9-1.4,3.4-3.4,3.4h-23.4v21.4h21.6    c2,0,3.4,1.3,3.4,3.3c0,2-1.4,3.3-3.4,3.3h-21.6v28c0,1.9-1.4,3.4-3.4,3.4c-1.9,0-3.4-1.4-3.4-3.4V3.8z"
 id="path3105" />
		<path
 fill="#3A509F"
 d="M584.2,33.7c0-19.2,12.1-33.7,28-33.7c16.2,0,27.9,14.3,27.9,33.7c0,19.3-11.7,33.4-27.9,33.4    C596.3,67.2,584.2,52.7,584.2,33.7z M633.1,33.7c0-15.6-8.6-27.2-20.9-27.2c-12.1,0-21,11.9-21,27.2c0,15.2,8.9,26.9,21,26.9    C624.5,60.6,633.1,49.2,633.1,33.7z"
 id="path3107" />
		<path
 fill="#3A509F"
 d="M712.8,4c0-1.9,1.4-3.4,3.4-3.4c1.8,0,3.4,1.4,3.4,3.4v40.9c0,6.7-3,22.3-22.1,22.3    c-19,0-21.8-15.6-21.8-22.3V4c0-1.9,1.4-3.4,3.4-3.4c1.8,0,3.4,1.4,3.4,3.4v40.7c0,5,2.3,15.9,15.2,15.9c13,0,15.2-10.9,15.2-15.9    V4z"
 id="path3109" />
		<path
 fill="#3A509F"
 d="M796.2,4c0-1.9,1.4-3.4,3.5-3.4c1.8,0,3.3,1.4,3.3,3.4v59.2c0,2-1.4,3.4-3.3,3.4h-1.2    c-1.3,0-3.1-0.4-4.2-1.5c-4.1-3.9-10.8-17.9-17.1-31.6c-5.2-11.3-7.9-18.3-11.1-22.9v52.6c0,2-1.4,3.4-3.4,3.4    c-1.8,0-3.4-1.3-3.4-3.4V4c0-1.9,1.5-3.4,3.4-3.4h1.2c1.1,0,2.9,0.2,4.2,1.4c4.4,4.3,10.8,18,16.6,31.1    c4.4,9.9,8.3,18.6,11.5,23.5V4z"
 id="path3111" />
		<path
 fill="#3A509F"
 d="M846.1,66.6c-1.9,0-3.3-1.4-3.3-3.4V3.9c0-1.9,1.3-3.3,3.3-3.3h17.7c17.6,0,29.5,13.9,29.5,33.2    c0,19.1-11.9,32.7-29.5,32.7H846.1z M863.8,60c13.9,0,22.6-10.8,22.6-26.2c0-15.5-8.7-26.7-22.6-26.7h-14.3V60H863.8z"
 id="path3113" />
		<path
 fill="#3A509F"
 d="M975,63.5c0,1.7-1.2,3.1-3.5,3.1c-1.7,0-2.5-0.7-3-2.3c-1-3-3.1-9.6-5.7-17.3h-28.7    c-2.6,7.7-4.4,14.4-5.4,17.3c-0.5,1.5-1.5,2.3-3.3,2.3c-2.3,0-3.3-1.3-3.3-3.1c0-0.4,0.2-1.1,0.3-1.5c0.5-1.7,13.8-45.4,21.1-59    c0.8-1.7,2.4-2.4,4.9-2.4c2.3,0,4.3,0.5,5,2.5c6.3,12.8,20.2,55.7,21.2,58.9C974.8,62.4,975,63.1,975,63.5z M960.6,40.4    c-3.6-10.8-7.4-21.7-12.2-32.9c-4.8,11.2-8.5,22.2-12.1,32.9H960.6z"
 id="path3115" />
		<path
 fill="#3A509F"
 d="M1011.9,7.2h-16.3c-1.9,0-3.3-1.4-3.3-3.4c0-1.9,1.3-3.2,3.3-3.2h39.8c2,0,3.3,1.2,3.3,3.2    c0,1.9-1.3,3.4-3.3,3.4h-16.7v56c0,1.9-1.4,3.4-3.4,3.4c-1.9,0-3.4-1.4-3.4-3.4V7.2z"
 id="path3117" />
		<path
 fill="#3A509F"
 d="M1070.4,4c0-1.9,1.4-3.4,3.4-3.4c1.9,0,3.4,1.4,3.4,3.4v59.2c0,1.9-1.4,3.4-3.4,3.4    c-1.9,0-3.4-1.4-3.4-3.4V4z"
 id="path3119" />
		<path
 fill="#3A509F"
 d="M1112.9,33.7c0-19.2,12.1-33.7,28-33.7c16.2,0,27.9,14.3,27.9,33.7c0,19.3-11.7,33.4-27.9,33.4    C1125,67.2,1112.9,52.7,1112.9,33.7z M1161.8,33.7c0-15.6-8.6-27.2-20.9-27.2c-12.1,0-21,11.9-21,27.2c0,15.2,8.9,26.9,21,26.9    C1153.2,60.6,1161.8,49.2,1161.8,33.7z"
 id="path3121" />
		<path
 fill="#3A509F"
 d="M1241.6,4c0-1.9,1.4-3.4,3.5-3.4c1.8,0,3.3,1.4,3.3,3.4v59.2c0,2-1.4,3.4-3.3,3.4h-1.2    c-1.3,0-3.1-0.4-4.2-1.5c-4.1-3.9-10.8-17.9-17.1-31.6c-5.2-11.3-7.9-18.3-11.1-22.9v52.6c0,2-1.4,3.4-3.4,3.4    c-1.8,0-3.4-1.3-3.4-3.4V4c0-1.9,1.5-3.4,3.4-3.4h1.2c1.1,0,2.9,0.2,4.2,1.4c4.4,4.3,10.8,18,16.6,31.1    c4.4,9.9,8.3,18.6,11.5,23.5V4z"
 id="path3123" />
	</g>
</g>
</svg>